<?xml version="1.0" encoding="UTF-8"?>
<svg id="_레이어_1" data-name="레이어 1" xmlns="http://www.w3.org/2000/svg" version="1.1" xmlns:xlink="http://www.w3.org/1999/xlink" viewBox="0 0 93 51">
  <defs>
    <style>
      .cls-1 {
        fill: url(#linear-gradient);
      }

      .cls-1, .cls-2, .cls-3, .cls-4 {
        stroke-width: 0px;
      }

      .cls-2 {
        fill: url(#linear-gradient-2);
      }

      .cls-3 {
        fill: url(#linear-gradient-3);
      }

      .cls-4 {
        fill: #231815;
      }
    </style>
    <linearGradient id="linear-gradient" x1="63.2" y1="22.7" x2="49.4" y2="27.3" gradientTransform="translate(0 -6)" gradientUnits="userSpaceOnUse">
      <stop offset="0" stop-color="#734598"/>
      <stop offset=".8" stop-color="#e94b08" stop-opacity="0"/>
    </linearGradient>
    <linearGradient id="linear-gradient-2" x1="57" y1="9.2" x2="49.3" y2="27.6" gradientTransform="translate(0 -6)" gradientUnits="userSpaceOnUse">
      <stop offset="0" stop-color="#f4a23b"/>
      <stop offset="1" stop-color="#e94b08"/>
    </linearGradient>
    <linearGradient id="linear-gradient-3" x1="42.9" y1="9.2" x2="35.2" y2="27.6" xlink:href="#linear-gradient-2"/>
  </defs>
  <g>
    <path class="cls-4" d="M5.9,31.9h1.7l1.6,6.5h0l1.7-6.5h1.6l1.7,6.5h0l1.6-6.5h1.7l-2.5,8.8h-1.6l-1.8-6.2h0l-1.8,6.2h-1.6l-2.5-8.8Z"/>
    <path class="cls-4" d="M17.6,37.5c0-2.1,1.2-3.4,3.1-3.4s3,1,3,3.3v.5h-4.6c0,1.1.7,1.8,1.7,1.8.7,0,1.1-.3,1.3-.7h1.5c-.3,1.1-1.3,1.9-2.9,1.9s-3.2-1.3-3.2-3.4ZM22.3,36.8c0-.9-.6-1.6-1.5-1.6s-1.6.7-1.6,1.6h3.1Z"/>
    <path class="cls-4" d="M27.2,36.9c.5,0,1.4,0,1.7,0v-.5c0-.7-.4-1-1.2-1s-1.1.3-1.2.8h-1.5c.1-1.1,1.1-2,2.8-2s2.7.5,2.7,2.3v4.4h-1.5v-.9h0c-.3.6-.9,1.1-2,1.1s-2.2-.7-2.2-2,1.2-1.9,2.5-2ZM27.3,39.8c.9,0,1.6-.6,1.6-1.4v-.5c-.3,0-1.2,0-1.5,0-.7,0-1.2.4-1.2,1s.5.9,1.1.9Z"/>
    <path class="cls-4" d="M35.2,40.8h-1.7l-2.4-6.6h1.7l1.5,4.9h0l1.5-4.9h1.6l-2.4,6.6Z"/>
    <path class="cls-4" d="M38,37.5c0-2.1,1.2-3.4,3.1-3.4s3,1,3,3.3v.5h-4.6c0,1.1.7,1.8,1.7,1.8.7,0,1.1-.3,1.3-.7h1.5c-.3,1.1-1.3,1.9-2.9,1.9s-3.2-1.3-3.2-3.4ZM42.7,36.8c0-.9-.6-1.6-1.5-1.6s-1.6.7-1.6,1.6h3.1Z"/>
    <path class="cls-4" d="M45.4,34.2h1.5v1.1h0c.2-.8.9-1.2,1.6-1.2s.4,0,.6,0v1.4c-.1,0-.5,0-.7,0-.9,0-1.5.6-1.5,1.4v3.9h-1.6v-6.6Z"/>
    <path class="cls-4" d="M52.7,35.2c-.7,0-1.2.3-1.1.8,0,.3.3.6.9.8l1.1.2c1.3.3,1.9.9,1.9,1.8,0,1.2-1.1,2.1-2.8,2.1s-2.7-.8-2.8-2h1.6c0,.6.5.8,1.3.8.8,0,1.2-.3,1.2-.8,0-.4-.3-.6-1-.8l-1.1-.2c-1.2-.3-1.9-.9-1.9-1.8,0-1.2,1.1-2,2.7-2s2.6.8,2.7,2h-1.5c0-.5-.5-.8-1.2-.8Z"/>
    <path class="cls-4" d="M58.7,31.9l2.6,6.4h.1l2.6-6.4h2v8.8h-1.5v-6.1h0l-2.5,6.1h-1.1l-2.5-6.1h0v6.1h-1.5v-8.8h2Z"/>
    <path class="cls-4" d="M69.2,40.8h-1.6v-8.8h1.6v8.8Z"/>
    <path class="cls-4" d="M78.2,40.8h-1.4l-4.2-6h0v6h-1.6v-8.8h1.4l4.2,6h0v-6h1.6v8.8Z"/>
    <path class="cls-4" d="M79.8,40.8v-8.8h3.1c2.6,0,4.2,1.7,4.2,4.4,0,2.8-1.6,4.4-4.3,4.4h-3ZM82.7,39.4c1.9,0,2.8-1,2.8-3.1s-.9-3-2.7-3h-1.4v6.1h1.3Z"/>
  </g>
  <g>
    <path class="cls-1" d="M65.2,18.1c1.7-2.1,1.3-5.2-.8-6.9h0c-2.1-1.7-5.2-1.3-6.9.8l-10.1,12.7h0c4.3,3.4,10.5,2.7,13.9-1.6l4-5h0,0Z"/>
    <path class="cls-2" d="M41.8,18.1c-1.7-2.1-1.3-5.2.8-6.9h0c2.1-1.7,5.2-1.3,6.9.8l10.1,12.7h0c-4.3,3.4-10.5,2.7-13.9-1.6l-.5-.6-3.5-4.4h0Z"/>
    <path class="cls-3" d="M27.8,18.1c-1.7-2.1-1.3-5.2.8-6.9h0c2.1-1.7,5.2-1.3,6.9.8l10.1,12.7h0c-4.3,3.4-10.5,2.7-13.9-1.6l-.5-.6-3.5-4.4h0Z"/>
  </g>
</svg>