<svg width="70" height="54" viewBox="0 0 70 54" fill="none" xmlns="http://www.w3.org/2000/svg">
<path d="M35.016 41.9875C35.016 41.9875 39.8646 42.6398 41.0265 44.4819C41.0392 44.5074 41.0494 44.5278 41.0622 44.5558C41.2736 44.9788 42.6979 46.1839 39.1079 49.0452C38.9372 49.165 38.7639 49.2848 38.6034 49.4045C37.6429 50.1179 36.904 50.8543 36.746 51.5116C36.5727 52.2301 37.7269 54.3169 42.5425 52.9002C57.3509 48.5459 71.0842 39.5059 69.8255 24.305C68.4496 7.63152 46.0688 -0.0733631 31.4667 0.000526271C19.1807 0.064224 -1.20768 5.50656 0.056084 22.8757C0.479037 28.6671 4.78501 33.2992 10.0719 35.7961C13.0402 37.4726 17.8125 38.8052 21.1502 39.6893C21.1502 39.6893 28.1799 41.3327 35.016 41.9875Z" fill="#F26F20"/>
<path d="M40.0457 20.0985H38.7208V14.7988H35.6939V24.2006C32.5421 22.1521 32.3714 19.9482 32.1089 18.1162H32.114C32.0478 17.6448 32.0121 16.6664 32.0121 16.6664V14.7988H28.4017V16.6664C28.4017 16.6664 28.3635 17.6448 28.2973 18.1162C28.0323 19.9864 27.8667 22.2413 24.5264 24.3229L26.0959 26.2288C29.5942 24.2414 30.2031 21.8387 30.2031 21.8387C30.2031 21.8387 30.5802 24.3892 34.3002 26.346L35.6939 24.5675V31.4571H37.3016C38.0863 31.4571 38.7208 30.8226 38.7208 30.0379V22.5623H40.0457V31.4571H41.7502C42.586 31.4571 43.2637 30.7793 43.2637 29.9436V14.8039H40.0457V20.1036V20.0985Z" fill="white"/>
<path d="M18.8722 26.3458H14.3293V22.9393H17.5473V20.2895H10.9228V14.8013H7.51621V21.8029C7.51621 22.4297 8.02579 22.9393 8.65258 22.9393H11.1139V26.3458H6.19385V28.0504C6.19385 28.5727 6.6168 28.9957 7.13912 28.9957H18.8722V31.2659H20.6711C21.5603 31.2659 22.2788 30.5448 22.2788 29.6581V14.8013H18.8722V26.3458Z" fill="#FDD906"/>
<path d="M58.5713 14.8013V23.3189H60.8415C61.5727 23.3189 62.1664 22.7253 62.1664 21.994V14.8013H58.5713Z" fill="white"/>
<path d="M52.8945 23.3165H56.4896V16.1237C56.4896 15.3925 55.8959 14.7988 55.1647 14.7988H45.5132V17.4487H52.8945V23.3165Z" fill="white"/>
<path d="M51.1903 24.6414H47.7837V30.1296C47.7837 30.8608 48.3774 31.4545 49.1086 31.4545H62.1666V24.6414H51.1903ZM58.7601 29.1843H51.1903V26.9141H58.7601V29.1843Z" fill="white"/>
<path d="M23.01 11.2317C23.0151 11.2572 23.01 11.2852 23.0049 11.3107C22.9871 11.3744 22.9438 11.4254 22.8852 11.4483C22.8852 11.4483 21.7233 11.9375 21.6163 11.9833C21.5526 12.0776 20.8596 13.1325 20.8596 13.1325C20.8265 13.186 20.7653 13.2191 20.7016 13.2242C20.6354 13.2293 20.5717 13.2038 20.5309 13.1528C20.5309 13.1528 19.708 12.1974 19.6341 12.1107C19.5245 12.0802 18.3066 11.7489 18.3066 11.7489C18.2429 11.7311 18.1945 11.6852 18.169 11.6241C18.1614 11.6088 18.1588 11.591 18.1563 11.5757C18.1512 11.5298 18.1588 11.4814 18.1843 11.4406C18.1843 11.4406 18.8366 10.3629 18.8977 10.2635C18.8926 10.1489 18.8315 8.88764 18.8315 8.88764C18.8315 8.82394 18.8569 8.76024 18.9054 8.71948C18.9538 8.67871 19.0226 8.66342 19.0863 8.67616C19.0863 8.67616 20.3118 8.96408 20.4239 8.98956C20.5309 8.94879 21.7106 8.5029 21.7106 8.5029C21.7718 8.47997 21.838 8.48762 21.8915 8.52329C21.9425 8.55386 21.9781 8.60992 21.9858 8.67107C21.9858 8.67107 21.9858 8.67616 21.9858 8.68126C21.9858 8.68126 22.0902 9.93738 22.1004 10.052C22.1743 10.1412 22.9591 11.1247 22.9591 11.1247C22.9846 11.1527 22.9973 11.1884 23.0024 11.2266L23.01 11.2317Z" fill="#FDD906"/>
</svg>
